<svg width="512" height="512" xmlns="http://www.w3.org/2000/svg" clip-rule="evenodd">

 <g>
  <title>background</title>
  <rect fill="none" id="canvas_background" height="402" width="582" y="-1" x="-1"/>
 </g>
 <g>
  <title>Layer 1</title>
  <path fill="#ffffff" id="svg_1" d="m449.446,0c34.525,0 62.554,28.03 62.554,62.554l0,386.892c0,34.524 -28.03,62.554 -62.554,62.554l-386.892,0c-34.524,0 -62.554,-28.03 -62.554,-62.554l0,-386.892c0,-34.524 28.029,-62.554 62.554,-62.554l386.892,0zm-167.126,86l-53.057,0c-2.455,38.107 -23.833,82.11 -74.921,95.39l0,54.573l46.439,0l0,100.789c0,62.937 38.074,89.248 89.16,89.248l56.739,0l0,-66.874l-29.968,0c-21.157,-0.026 -34.392,-9.131 -34.392,-35.401l0,-87.762l61.906,0l0,-63.424l-61.906,0l0,-86.539z"/>
 </g>
</svg>